<?xml version="1.0" encoding="UTF-8" standalone="no"?>
<!-- Created with Inkscape (http://www.inkscape.org/) -->

<svg version="1.1" id="svg2" width="100%" height="100%" viewBox="0 0 800 1000" sodipodi:docname="TOMIĆ ORDINACIJA.ai"
   xmlns:inkscape="http://www.inkscape.org/namespaces/inkscape"
   xmlns:sodipodi="http://sodipodi.sourceforge.net/DTD/sodipodi-0.dtd"
   xmlns="http://www.w3.org/2000/svg"
   xmlns:svg="http://www.w3.org/2000/svg">
   <defs id="defs6">
      <clipPath clipPathUnits="userSpaceOnUse" id="clipPath20">
         <path d="M 0,792 H 612 V 0 H 0 Z" id="path18" />
      </clipPath>
   </defs>
   <sodipodi:namedview id="namedview4" pagecolor="#ffffff" bordercolor="#000000" borderopacity="0.25" inkscape:showpageshadow="2" inkscape:pageopacity="0.0" inkscape:pagecheckerboard="0" inkscape:deskcolor="#d1d1d1" />
   <g id="g8" inkscape:groupmode="layer" inkscape:label="TOMIĆ ORDINACIJA" transform="matrix(1.3333333,0,0,-1.3333333,0,1056)">
      <g id="g10" transform="translate(135.1489,347.7438)">
         <path d="M 0,0 H -13.523" style="fill:none;stroke:#b21f24;stroke-width:7;stroke-linecap:round;stroke-linejoin:miter;stroke-miterlimit:10;stroke-dasharray:none;stroke-opacity:1" id="path12" />
      </g>
      <g id="g14">
         <g id="g16" clip-path="url(#clipPath20)">
            <g id="g22" transform="translate(491.7369,436.9419)">
               <path d="m 0,0 c -2.939,-6.319 -6.415,-12.398 -10.367,-18.175 l -48.276,-71.023 h -105.989 l -5.997,41.318 -16.722,-48.607 -21.891,94.963 -8.723,-87.674 h -138.623" style="fill:none;stroke:#b21f24;stroke-width:7;stroke-linecap:butt;stroke-linejoin:miter;stroke-miterlimit:10;stroke-dasharray:none;stroke-opacity:1" id="path24" />
            </g>
            <g id="g26" transform="translate(175.514,431.2303)">
               <path d="m 0,0 c -6.026,11.108 -10.449,21.897 -12.726,34.367 -1.449,7.934 -1.579,17.905 -1.045,23.686 0.393,4.265 7.02,47.937 49.675,66.862 49.017,21.748 109.771,-8.894 118.743,-62.658 9.078,53.652 70.519,84.397 119.473,62.658 52.153,-23.16 51.926,-62.597 52.32,-66.862 0.533,-5.781 0.404,-15.752 -1.045,-23.686 -1.814,-9.929 -4.934,-19.542 -9.172,-28.655" style="fill:none;stroke:#b21f24;stroke-width:7;stroke-linecap:butt;stroke-linejoin:bevel;stroke-miterlimit:10;stroke-dasharray:none;stroke-opacity:1" id="path28" />
            </g>
            <g id="g32" transform="translate(133.6114,322.2301)">
               <path d="m 0,0 c -7.338,0 -11.985,-4.416 -11.985,-10.406 0,-5.953 4.647,-10.408 11.985,-10.408 7.289,0 11.986,4.455 11.986,10.408 C 11.986,-4.416 7.289,0 0,0 m 0,2.842 c 9.637,0 16.193,-5.684 16.193,-13.248 0,-7.566 -6.556,-13.25 -16.193,-13.25 -9.686,0 -16.192,5.684 -16.192,13.25 0,7.564 6.506,13.248 16.192,13.248" style="fill:#fff;fill-opacity:1;fill-rule:nonzero;stroke:none" id="path34" />
            </g>
            <g id="g36" transform="translate(173.9187,321.8075)">
               <path d="M 0,0 H -8.561 V -9.792 H 0 c 3.864,0 6.506,2.035 6.506,4.915 C 6.506,-1.997 3.864,0 0,0 m 6.262,-22.772 -8.317,10.176 h -6.506 v -10.176 h -4.061 V 2.842 H 0.489 c 5.968,0 10.224,-2.995 10.224,-7.719 0,-4.608 -4.011,-7.143 -8.463,-7.45 l 8.805,-10.445 z" style="fill:#fff;fill-opacity:1;fill-rule:nonzero;stroke:none" id="path38" />
            </g>
            <g id="g40" transform="translate(200.2346,301.8774)">
               <path d="m 0,0 h 7.093 c 7.925,0 12.524,4.454 12.524,9.946 0,5.53 -4.452,9.984 -12.524,9.984 H 0 Z M -4.06,-2.842 V 22.772 H 7.093 c 10.127,0 16.731,-5.568 16.731,-12.826 0,-7.297 -6.604,-12.788 -16.731,-12.788 z" style="fill:#fff;fill-opacity:1;fill-rule:nonzero;stroke:none" id="path42" />
            </g>
            <path d="m 235.551,324.649 h 4.06 v -25.614 h -4.06 z" style="fill:#fff;fill-opacity:1;fill-rule:nonzero;stroke:none" id="path44" />
            <g id="g46" transform="translate(275.4686,299.0356)">
               <path d="M 0,0 -19.03,20.66 V 0 h -4.06 v 25.614 h 4.158 L -0.147,5.376 v 20.238 h 4.06 L 3.913,0 Z" style="fill:#fff;fill-opacity:1;fill-rule:nonzero;stroke:none" id="path48" />
            </g>
            <g id="g50" transform="translate(304.4254,321.8075)">
               <path d="M 0,0 -7.093,-14.246 H 7.044 Z m 11.154,-22.772 -2.886,5.684 H -8.267 l -2.887,-5.684 h -4.5 l 13.11,25.614 h 5.038 l 13.16,-25.614 z" style="fill:#fff;fill-opacity:1;fill-rule:nonzero;stroke:none" id="path52" />
            </g>
            <g id="g54" transform="translate(328.1476,311.8237)">
               <path d="m 0,0 c 0,7.872 7.388,13.248 16.633,13.248 5.919,0 9.931,-2.189 12.523,-5.069 L 25.732,6.682 C 23.873,8.831 20.498,10.406 16.633,10.406 9.638,10.406 4.208,6.105 4.208,0 c 0,-6.068 5.43,-10.407 12.425,-10.407 3.865,0 7.24,1.536 9.099,3.725 L 29.205,-8.18 C 26.466,-11.099 22.552,-13.249 16.633,-13.249 7.388,-13.249 0,-7.873 0,0" style="fill:#fff;fill-opacity:1;fill-rule:nonzero;stroke:none" id="path56" />
            </g>
            <path d="m 367.672,324.649 h 4.06 v -25.614 h -4.06 z" style="fill:#fff;fill-opacity:1;fill-rule:nonzero;stroke:none" id="path58" />
            <g id="g60" transform="translate(383.3254,303.951)">
               <path d="m 0,0 c 1.419,-1.344 3.327,-2.535 6.164,-2.535 4.011,0 6.556,2.189 6.556,5.377 v 17.856 h 4.06 V 2.803 c 0,-5.568 -4.55,-8.18 -10.371,-8.18 -3.473,0 -6.262,0.884 -8.512,2.958 z" style="fill:#fff;fill-opacity:1;fill-rule:nonzero;stroke:none" id="path62" />
            </g>
            <g id="g64" transform="translate(425.1484,321.8075)">
               <path d="M 0,0 -7.093,-14.246 H 7.044 Z m 11.154,-22.772 -2.886,5.684 H -8.268 l -2.886,-5.684 h -4.5 L -2.543,2.842 h 5.037 l 13.16,-25.614 z" style="fill:#fff;fill-opacity:1;fill-rule:nonzero;stroke:none" id="path66" />
            </g>
            <g id="g68" transform="translate(156.8483,355.9795)">
               <path d="m 0,0 v 53.876 h -19.262 v 8.188 H 28.474 V 53.876 H 9.305 L 9.305,0 Z" style="fill:#fff;fill-opacity:1;fill-rule:nonzero;stroke:none" id="path70" />
            </g>
            <g id="g72" transform="translate(223.8173,409.7227)">
               <path d="m 0,0 c -13.302,0 -21.675,-9.873 -21.675,-23.189 0,-13.226 8.373,-23.189 21.675,-23.189 13.117,0 21.676,9.963 21.676,23.189 C 21.676,-9.873 13.117,0 0,0 m 0,8.062 c 18.513,0 31.258,-13.316 31.258,-31.251 0,-17.936 -12.745,-31.251 -31.258,-31.251 -18.513,0 -31.258,13.315 -31.258,31.251 0,17.935 12.745,31.251 31.258,31.251" style="fill:#fff;fill-opacity:1;fill-rule:nonzero;stroke:none" id="path74" />
            </g>
            <path d="M 349.519,417.785 H 358 v -62.502 h -8.481 z" style="fill:#fff;fill-opacity:1;fill-rule:nonzero;stroke:none" id="path76" />
            <g id="g78" transform="translate(401.9234,423.879)">
               <path d="m 0,0 h -6.689 l 8.335,11.908 h 9.999 z m -31.289,-38.092 c 0,18.497 14.358,32.393 32.305,32.393 12.372,0 22.908,-6.94 25.819,-19.273 l -8.734,-0.242 c -3.307,5.052 -9.624,10.221 -17.085,10.221 -12.752,0 -22.576,-9.564 -22.576,-23.099 0,-13.444 9.824,-23.099 22.576,-23.099 7.461,0 16.325,3.207 17.971,14.937 l 8.734,-0.121 c 0,-12.939 -11.772,-22.847 -26.705,-22.847 -17.947,0 -32.305,12.633 -32.305,31.13" style="fill:#fff;fill-opacity:1;fill-rule:nonzero;stroke:none" id="path80" />
            </g>
         </g>
      </g>
   </g>
</svg>
